<svg width="964" height="867" viewBox="0 0 964 867" fill="none" xmlns="http://www.w3.org/2000/svg">
<g clip-path="url(#clip0_0_1)">
<path d="M916.26 804.508V805.458C916.26 805.708 916.26 805.968 916.24 806.218C916 819.18 911.474 831.699 903.37 841.818C902.96 842.348 902.53 842.858 902.09 843.368C901.43 844.148 900.75 844.898 900.05 845.638C899.99 845.698 899.93 845.768 899.86 845.828L899.83 845.858C899.75 845.938 899.67 846.028 899.59 846.108C898.36 847.378 897.07 848.595 895.72 849.758C895.45 849.988 895.17 850.228 894.88 850.458C884.439 859.128 871.321 863.919 857.75 864.018C857.65 864.028 857.54 864.028 857.44 864.028H857.09C856.99 864.028 856.89 864.028 856.79 864.018C856.44 864.018 856.1 864.008 855.75 863.998C842.176 863.677 829.133 858.662 818.84 849.808C818.56 849.578 818.28 849.338 818.01 849.088C816.94 848.148 815.91 847.158 814.92 846.138C814.84 846.058 814.76 845.968 814.68 845.888L814.65 845.858C814.58 845.798 814.52 845.728 814.46 845.668C813.62 844.788 812.81 843.878 812.03 842.948C811.6 842.438 811.18 841.918 810.77 841.388C802.872 831.344 798.472 818.994 798.24 806.218C798.22 805.978 798.22 805.728 798.22 805.478V804.548C798.22 804.438 798.22 804.328 798.23 804.218C798.372 791.417 802.695 779.014 810.54 768.898C810.95 768.368 811.37 767.848 811.8 767.338C812.59 766.378 813.42 765.448 814.27 764.538C814.33 764.468 814.39 764.408 814.46 764.338C814.46 764.328 814.47 764.318 814.48 764.308C814.56 764.228 814.64 764.138 814.73 764.058C815.84 762.908 816.997 761.801 818.2 760.738C818.47 760.488 818.75 760.248 819.03 760.018C829.555 751.053 842.904 746.085 856.73 745.988C856.83 745.978 856.94 745.978 857.04 745.978H857.69C871.196 746.063 884.262 750.794 894.69 759.378C894.97 759.618 895.25 759.848 895.53 760.088C896.99 761.328 898.39 762.648 899.72 764.028C899.8 764.108 899.88 764.198 899.96 764.278L899.98 764.298C900.05 764.358 900.12 764.438 900.18 764.498C900.92 765.278 901.63 766.088 902.32 766.908C902.76 767.418 903.18 767.928 903.6 768.458C911.659 778.649 916.108 791.226 916.25 804.218C916.258 804.314 916.262 804.411 916.26 804.508V804.508Z" fill="#00BFA6"/>
<path d="M857.75 746.218H855.75V864.218H857.75V746.218Z" fill="white"/>
<path d="M916.26 804.218H797.75V806.218H916.26V804.218Z" fill="white"/>
<path d="M831.73 804.218C831.573 796.93 829.684 789.784 826.218 783.372C822.753 776.959 817.81 771.463 811.8 767.338C811.37 767.848 810.95 768.368 810.54 768.898C816.319 772.834 821.075 778.092 824.414 784.235C827.753 790.377 829.579 797.228 829.74 804.218C829.75 804.548 829.75 804.878 829.75 805.218C829.75 805.558 829.75 805.888 829.74 806.218C829.578 813.161 827.774 819.968 824.477 826.08C821.18 832.193 816.483 837.439 810.77 841.388C811.18 841.918 811.6 842.438 812.03 842.948C817.976 838.811 822.859 833.328 826.283 826.945C829.707 820.561 831.573 813.46 831.73 806.218C831.75 805.888 831.75 805.548 831.75 805.218C831.75 804.888 831.75 804.548 831.73 804.218Z" fill="white"/>
<path d="M883.76 806.218C883.75 805.888 883.75 805.558 883.75 805.218C883.75 804.878 883.75 804.548 883.76 804.218C883.925 797.097 885.817 790.122 889.273 783.893C892.729 777.664 897.645 772.367 903.6 768.458C903.18 767.928 902.76 767.418 902.32 766.908C896.139 771.007 891.041 776.542 887.462 783.039C883.884 789.536 881.931 796.802 881.77 804.218C881.75 804.548 881.75 804.888 881.75 805.218C881.75 805.548 881.75 805.888 881.77 806.218C881.93 813.586 883.859 820.807 887.396 827.273C890.932 833.739 895.972 839.259 902.09 843.368C902.53 842.858 902.96 842.348 903.37 841.818C897.479 837.899 892.62 832.617 889.206 826.419C885.792 820.221 883.924 813.292 883.76 806.218V806.218Z" fill="white"/>
<path d="M908.239 415.841C908.429 522.499 867.503 625.127 793.969 702.385C793.469 702.915 792.959 703.445 792.449 703.975C753.642 744.431 707.059 776.626 655.497 798.627C603.935 820.627 548.458 831.979 492.398 832C436.339 832.022 380.854 820.713 329.275 798.752C277.696 776.791 231.088 744.632 192.25 704.205C191.739 703.676 191.229 703.146 190.729 702.616C117.458 625.538 76.4892 523.325 76.2401 416.978C75.991 310.631 116.481 208.227 189.39 130.807C189.879 130.266 190.389 129.736 190.899 129.206C229.737 88.3988 276.458 55.9051 328.23 33.6952C380.001 11.4853 435.745 0.0220055 492.079 0.000396818C548.414 -0.0212119 604.166 11.3993 655.955 33.5695C707.743 55.7397 754.49 88.1976 793.359 128.975C793.869 129.505 794.379 130.034 794.87 130.574C867.774 207.651 908.348 309.748 908.239 415.841V415.841Z" fill="#3F3D56"/>
<path d="M908.239 415H76.239V417H908.239V415Z" fill="white"/>
<path d="M493.239 0.000366211H491.239V832H493.239V0.000366211Z" fill="white"/>
<path d="M310.286 278.89C292.452 236.714 266.6 198.402 234.163 166.079C220.747 152.656 206.279 140.325 190.899 129.206C190.389 129.736 189.879 130.266 189.39 130.806C278.244 194.932 336.194 299.35 336.239 417.06C336.284 534.27 278.904 638.352 190.729 702.616C191.229 703.146 191.739 703.676 192.25 704.205C207.2 693.287 221.278 681.222 234.356 668.119C284.262 618.134 318.14 554.409 331.665 485.081C345.189 415.754 337.746 343.968 310.286 278.89V278.89Z" fill="white"/>
<path d="M648.239 416.941C648.194 299.231 706.064 194.768 794.87 130.574C794.379 130.034 793.869 129.505 793.359 128.975C747.925 161.859 710.922 205.032 685.375 254.961C659.828 304.89 646.464 360.158 646.375 416.243C646.287 472.329 659.476 527.638 684.865 577.648C710.253 627.658 747.12 670.947 792.449 703.975C792.959 703.445 793.469 702.915 793.969 702.385C705.754 638.188 648.284 534.15 648.239 416.941Z" fill="white"/>
<path d="M390.955 704.422L388.184 759.842L417.279 765.384L425.592 712.735L390.955 704.422Z" fill="#9D616A"/>
<path d="M535.046 722.434L541.974 768.155H568.298L562.756 719.663L535.046 722.434Z" fill="#9D616A"/>
<path d="M396.497 597.739L390.955 661.472L385.413 715.506C385.413 715.506 406.195 707.193 425.592 719.663C425.592 719.663 438.062 716.892 435.291 662.857L447.76 606.052L396.497 597.739Z" fill="#EFEFEF"/>
<path d="M508.722 618.521C508.722 618.521 517.035 668.399 521.192 672.556C521.192 672.556 528.054 717.159 531.387 728.434C531.587 729.239 531.885 730.015 532.276 730.747C535.047 734.903 565.527 744.602 566.913 727.976C568.298 711.35 572.455 683.64 558.6 662.857L550.287 610.208L508.722 618.521Z" fill="#EFEFEF"/>
<path d="M592.545 612.287C591.159 627.527 514.957 624.756 501.102 624.756C496.723 624.756 491.099 624.077 488.299 616.512C483.506 603.586 480.873 584.701 479.986 577.317C479.627 584.161 476.467 600.731 468.57 611.345C463.762 617.829 455.81 616.54 447.067 615.058C432.547 612.591 403.687 603.613 395.804 605.359C383.335 608.13 368.33 608.407 368.094 605.359C367.986 603.693 367.996 602.022 368.122 600.357C369.951 571.705 396.497 494.034 396.497 488.285C396.497 481.357 408.966 452.262 408.966 452.262L536.432 437.021C536.432 437.021 586.919 573.216 593.861 606.745C594.456 609.64 592.656 611.081 592.545 612.287Z" fill="#EFEFEF"/>
<path d="M421.436 758.456L385.413 751.529L388.877 809.027L417.279 829.117C417.279 829.117 414.508 773.697 421.436 758.456Z" fill="#EFEFEF"/>
<path d="M568.298 754.3C568.298 754.3 550.287 765.384 535.047 754.3L547.516 805.563L568.298 802.792C568.298 802.792 577.997 772.311 568.298 754.3Z" fill="#EFEFEF"/>
<path d="M572.455 797.25C572.455 797.25 543.359 798.636 543.359 801.407V847.128C543.359 851.285 548.901 856.827 547.516 859.598C546.13 862.369 555.829 869.296 577.997 865.14C600.165 860.983 591.852 847.128 591.852 847.128C591.852 847.128 569.684 808.334 572.455 797.25Z" fill="#2F2E41"/>
<path d="M384.72 797.943C384.72 797.943 417.972 798.636 417.972 801.407V847.128C417.972 851.285 412.43 856.827 413.816 859.598C415.201 862.369 405.503 869.296 383.335 865.14C361.167 860.983 369.48 847.128 369.48 847.128C369.48 847.128 387.491 809.027 384.72 797.943Z" fill="#2F2E41"/>
<path d="M594.623 612.979C593.237 628.22 512.879 629.605 499.024 629.605C494.645 629.605 491.099 624.077 488.299 616.513C503.166 613.561 567.107 601.521 593.861 606.745C594.372 608.783 594.627 610.878 594.623 612.979V612.979Z" fill="#00BFA6"/>
<path d="M468.57 611.345C463.762 617.829 457.196 622.082 448.453 620.6C433.933 618.133 403.688 611.926 395.804 613.672C383.335 616.443 368.33 608.407 368.094 605.359C367.986 603.693 367.996 602.022 368.122 600.357C397.286 599.568 448.938 599.914 468.57 611.345Z" fill="#00BFA6"/>
<path d="M414.508 269.376C414.508 269.376 389.569 261.063 367.401 286.002L363.245 294.315C363.245 294.315 331.379 304.014 321.68 310.941C321.68 310.941 292.585 304.014 256.562 310.941L220.539 302.628C220.539 302.628 151.264 254.136 144.337 284.617C137.409 315.098 209.455 326.182 209.455 326.182L269.031 342.808C269.031 342.808 314.753 353.892 332.764 345.579C332.764 345.579 384.027 342.808 393.726 323.411L414.508 333.109V269.376Z" fill="#9D616A"/>
<path d="M500.409 262.449C500.409 262.449 551.672 256.907 571.069 283.231L611.249 294.315C611.249 294.315 655.585 286.002 672.211 290.159L708.234 280.46C708.234 280.46 742.871 225.04 762.268 240.281C781.665 255.521 716.547 304.014 716.547 304.014L629.26 333.109C629.26 333.109 561.371 338.651 547.516 313.712L532.276 348.35L474.085 334.495L500.409 262.449Z" fill="#9D616A"/>
<path d="M451.917 255.521C472.577 255.521 489.325 238.773 489.325 218.113C489.325 197.453 472.577 180.705 451.917 180.705C431.257 180.705 414.508 197.453 414.508 218.113C414.508 238.773 431.257 255.521 451.917 255.521Z" fill="#9D616A"/>
<path d="M432.52 240.281V270.762L446.375 319.254L487.94 270.762C487.94 270.762 476.856 237.51 476.856 231.968C476.856 226.426 432.52 240.281 432.52 240.281Z" fill="#9D616A"/>
<path d="M542.667 440.485C542.667 440.485 541.987 445.487 535.684 445.944C523.062 446.872 501.808 449.02 487.94 453.647C467.157 460.575 404.81 460.575 404.81 460.575L400.764 335.076L402.732 325.489C401.346 314.405 412.43 270.069 412.43 270.069L420.521 264.098L428.1 262.463L430.442 264.527C430.442 282.982 448.453 300.55 448.453 300.55C474.777 288.081 485.861 260.371 485.861 260.371L493.662 259.221L501.822 260.135L509.207 260.966L506.644 263.142L505.258 265.913C505.175 266.079 505.327 265.746 505.258 265.913C485.085 308.711 509.443 328.066 524.655 336.573C530.96 340.12 531.583 343.5 531.583 343.5C531.583 343.5 537.277 341.796 537.125 347.657C536.667 366.624 533.218 409.45 538.51 421.088C545.438 436.329 542.667 440.485 542.667 440.485Z" fill="#EFEFEF"/>
<path d="M412.43 192.823C413.327 189.749 414.381 186.723 415.589 183.758C417.168 180.131 415.589 169.253 417.168 169.253H423.486L431.384 162L436.122 165.627L442.44 162L450.337 165.627L458.235 162L470.87 171.066L474.029 169.253L477.188 174.692H478.768L485.086 183.758H488.244V192.823H491.403V216.394L487.247 232.661L485.861 224.679C485.861 224.57 485.826 224.464 485.761 224.377C485.696 224.29 485.604 224.226 485.499 224.195C485.395 224.165 485.283 224.169 485.181 224.207C485.079 224.245 484.992 224.315 484.933 224.406L481.927 229.085L479.997 221.704C477.221 210.648 470.701 200.895 461.548 194.102C449.859 185.621 432.963 181.582 415.589 205.515L412.43 192.823Z" fill="#2F2E41"/>
<path d="M420.521 264.098C417.889 280.1 409.936 324.353 400.764 335.076L400.653 331.724C399.268 320.64 408.966 266.605 408.966 266.605L420.521 264.098Z" fill="#00BFA6"/>
<path d="M493.662 259.221C486.706 272.355 466.783 306.258 447.76 304.014C429.402 301.852 427.878 274.447 428.1 262.463L432.52 261.507C432.52 279.962 449.146 295.701 449.146 295.701C475.47 283.231 483.852 258.126 483.852 258.126L493.662 259.221Z" fill="#00BFA6"/>
<path d="M539.203 338.651C539.203 338.651 539.051 342.364 538.899 348.225C535.043 348.017 531.218 347.423 527.482 346.451C484.684 335.16 497.195 277.038 501.822 260.135L509.207 260.966H509.221C509.428 261.16 509.65 261.368 509.872 261.576C489.699 304.374 512.712 325.184 527.925 333.691C531.497 335.741 535.278 337.404 539.203 338.651V338.651Z" fill="#00BFA6"/>
<path d="M546.13 445.334C546.13 445.334 541.987 445.487 535.684 445.944C532.522 434.342 529.996 422.575 528.119 410.697C526.29 397.895 526.872 366.403 527.482 346.452C527.648 341.228 527.8 336.781 527.925 333.691C531.497 335.741 535.278 337.404 539.203 338.651C539.203 338.651 539.051 342.364 538.899 348.225C538.441 367.192 538.067 408.757 543.359 420.395C550.287 435.636 546.13 445.334 546.13 445.334Z" fill="#00BFA6"/>
<path d="M416.587 350.32C416.587 350.32 460.922 329.108 503.873 350.32Z" fill="#00BFA6"/>
<path d="M407.239 461C407.239 461 420.239 460 452.239 463C484.239 466 537.239 446 537.239 446" fill="#CACACA"/>
<path d="M232.26 237.508V238.458C232.26 238.708 232.26 238.968 232.24 239.218C232 252.18 227.474 264.699 219.37 274.818C218.96 275.348 218.53 275.858 218.09 276.368C217.43 277.148 216.75 277.898 216.05 278.638C215.99 278.698 215.93 278.768 215.86 278.828L215.83 278.858C215.75 278.938 215.67 279.028 215.59 279.108C214.36 280.378 213.07 281.595 211.72 282.758C211.45 282.988 211.17 283.228 210.88 283.458C200.439 292.128 187.321 296.919 173.75 297.018C173.65 297.028 173.54 297.028 173.44 297.028H173.09C172.99 297.028 172.89 297.028 172.79 297.018C172.44 297.018 172.1 297.008 171.75 296.998C158.176 296.677 145.133 291.662 134.84 282.808C134.56 282.578 134.28 282.338 134.01 282.088C132.94 281.148 131.91 280.158 130.92 279.138C130.84 279.058 130.76 278.968 130.68 278.888L130.65 278.858C130.58 278.798 130.52 278.728 130.46 278.668C129.62 277.788 128.81 276.878 128.03 275.948C127.6 275.438 127.18 274.918 126.77 274.388C118.872 264.344 114.472 251.994 114.24 239.218C114.22 238.978 114.22 238.728 114.22 238.478V237.548C114.22 237.438 114.22 237.328 114.23 237.218C114.372 224.417 118.695 212.014 126.54 201.898C126.95 201.368 127.37 200.848 127.8 200.338C128.59 199.378 129.42 198.448 130.27 197.538C130.33 197.468 130.39 197.408 130.46 197.338C130.46 197.328 130.47 197.318 130.48 197.308C130.56 197.228 130.64 197.138 130.73 197.058C131.84 195.908 132.997 194.801 134.2 193.738C134.47 193.488 134.75 193.248 135.03 193.018C145.555 184.053 158.904 179.085 172.73 178.988C172.83 178.978 172.94 178.978 173.04 178.978H173.69C187.196 179.063 200.262 183.794 210.69 192.378C210.97 192.618 211.25 192.848 211.53 193.088C212.99 194.328 214.39 195.648 215.72 197.028C215.8 197.108 215.88 197.198 215.96 197.278L215.98 197.298C216.05 197.358 216.12 197.438 216.18 197.498C216.92 198.278 217.63 199.088 218.32 199.908C218.76 200.418 219.18 200.928 219.6 201.458C227.659 211.649 232.108 224.226 232.25 237.218C232.258 237.314 232.262 237.411 232.26 237.508V237.508Z" fill="#00BFA6"/>
<path d="M173.75 179.218H171.75V297.218H173.75V179.218Z" fill="white"/>
<path d="M232.26 237.218H113.75V239.218H232.26V237.218Z" fill="white"/>
<path d="M147.73 237.218C147.573 229.93 145.684 222.784 142.218 216.372C138.753 209.959 133.81 204.463 127.8 200.338C127.37 200.848 126.95 201.368 126.54 201.898C132.319 205.834 137.075 211.092 140.414 217.235C143.753 223.377 145.579 230.228 145.74 237.218C145.75 237.548 145.75 237.878 145.75 238.218C145.75 238.558 145.75 238.888 145.74 239.218C145.578 246.161 143.774 252.968 140.477 259.08C137.18 265.193 132.483 270.439 126.77 274.388C127.18 274.918 127.6 275.438 128.03 275.948C133.976 271.811 138.859 266.328 142.283 259.945C145.707 253.561 147.573 246.46 147.73 239.218C147.75 238.888 147.75 238.548 147.75 238.218C147.75 237.888 147.75 237.548 147.73 237.218Z" fill="white"/>
<path d="M199.76 239.218C199.75 238.888 199.75 238.558 199.75 238.218C199.75 237.878 199.75 237.548 199.76 237.218C199.925 230.097 201.817 223.122 205.273 216.893C208.729 210.664 213.645 205.367 219.6 201.458C219.18 200.928 218.76 200.418 218.32 199.908C212.139 204.007 207.041 209.542 203.462 216.039C199.884 222.536 197.931 229.802 197.77 237.218C197.75 237.548 197.75 237.888 197.75 238.218C197.75 238.548 197.75 238.888 197.77 239.218C197.93 246.586 199.859 253.807 203.396 260.273C206.932 266.739 211.972 272.259 218.09 276.368C218.53 275.858 218.96 275.348 219.37 274.818C213.479 270.899 208.62 265.617 205.206 259.419C201.792 253.221 199.924 246.292 199.76 239.218V239.218Z" fill="white"/>
</g>
<defs>
<clipPath id="clip0_0_1">
<rect width="963.5" height="866.436" fill="white"/>
</clipPath>
</defs>
</svg>
